# xmcd
#
# Track frame offsets:
#	150
#	3744
#	17158
#	26751
#	41211
#	61635
#	77577
#	93839
#	116292
#	135322
#	152066
#	169628
#	184019
#	200905
#	222115
#	238301
#	257262
#	284072
#	309330
#	326213
#	347693
#
# Disc length: 4775 seconds
#
# Revision: 1
# Processed by: cddbd v1.5.2PL0 Copyright (c) Steve Scherf et al.
# Submitted via: audiograbber 1.83.01
#
DISCID=2312a515
DTITLE=DJ Whiteside - Ugly House Sensation 2011
DYEAR=2011
DGENRE=House
TTITLE0=DJ Withside - USA (Intro)
TTITLE1=Taio Cruz feat. Kylie Minogue - Higher
TTITLE2=Rlp and Barbara Tucker - R.E.S.P.E.C.T. (Club Edit)
TTITLE3=Eric Chase - Everybody Surrender (Original Mix)
TTITLE4=Whiteside and Jorge Martin S - You Lift Me Up (Slin Project Remix)
TTITLE5=DJ Antoine vs. Timati feat. Kalenna - Welcome To St.Tropez (DJ Antoine 
TTITLE5=vs. Mad Mark Remix)
TTITLE6=Whiteside - Take Me To The Beach (Midnight Organ Jump Remix)
TTITLE7=Christopher S and Mike Candys feat. JamaylDa Tyger - Jump (Slin Project R
TTITLE7=emix)
TTITLE8=Ruff Loaderz and Cut Up Boys - Music Sounds Better With You (Esquire Remi
TTITLE8=x)
TTITLE9=Giggs and Cole - Gravity (DJ Stone&Re-Fuge Remix)
TTITLE10=Mohomby - Bumby Ride (Beat Geek and Jimmy Joker Remix)
TTITLE11=Picco - Venga (Chukkie's Back To The Voltage Remix)
TTITLE12=Benny Benassi feat. T-Pain - Electroman (Clean Radio Edit)
TTITLE13=Whiteside and Slin Project - All That I Need (Original Mix)
TTITLE14=Matisse and Sadko - Hi Scandinavia! (Original Mix)
TTITLE15=Paul Kalkbrenner - Sky And Sand
TTITLE16=Armin Van Buuren feat. Laura V - Drowing (Avicii Remix)
TTITLE17=Whiteside - Whenever You Call Me (Moscow Burns The Floor Mix)
TTITLE18=Mr. Da-Nos - One Nation (Original Mix)
TTITLE19=Topmodelz - Your Love (Reloaded)
TTITLE20=Matt Caseli and Danny Freakazoid - Sign Your Name (Across My Heart)
EXTD=
EXTT0=
EXTT1=
EXTT2=
EXTT3=
EXTT4=
EXTT5=
EXTT6=
EXTT7=
EXTT8=
EXTT9=
EXTT10=
EXTT11=
EXTT12=
EXTT13=
EXTT14=
EXTT15=
EXTT16=
EXTT17=
EXTT18=
EXTT19=
EXTT20=
PLAYORDER=
